<svg xmlns="http://www.w3.org/2000/svg" viewBox="0 0 256 256" role="img" aria-labelledby="title">
  <title id="title">HVAC Plan Studio air-handler and duct mark</title>
  <rect width="256" height="256" rx="30" fill="#07111f"/>
  <path d="M18 110h58v36H18z" fill="#f0525a"/>
  <path d="M76 118h14v20H76z" fill="#d93d4b"/>
  <rect x="88" y="63" width="66" height="130" rx="17" fill="#2ccce4"/>
  <rect x="98" y="72" width="46" height="112" rx="14" fill="none" stroke="#12243a" stroke-width="5"/>
  <path d="M98 105h46M108 116h26v49h-26z" fill="none" stroke="#12243a" stroke-width="5" stroke-linejoin="round"/>
  <path d="M154 113h49v34h-49z" fill="#2f80ff"/>
  <path d="M203 119h35v22h-35z" fill="#4c8df5"/>
  <path d="M181 130h13v10l18 18v21h-12v-16l-19-19z" fill="#f7b733"/>
  <path d="M203 178v15l19 19-8 8-23-23v-19z" fill="#2f80ff"/>
  <path d="M203 119v-16l19-19-8-8-23 23v20z" fill="#2f80ff"/>
  <circle cx="203" cy="119" r="6" fill="#f7b733"/>
</svg>
